<svg xmlns="http://www.w3.org/2000/svg" width="100" height="100" fill="none" viewBox="0 0 100 100"><g clip-path="url(#a)"><path fill="#4b4b4b" d="M0 0h100v100H0z"/><path stroke="#4e724f" d="m-34.354 39.646 88.001-88M-34.354 44.646l88.001-88M-34.354 49.646l88.001-88M-34.354 54.646l88.001-88M-34.354 59.646l88.001-88M-34.354 64.646l88.001-88M-34.354 69.646l88.001-88M-34.354 74.646l88.001-88M-34.354 79.646l88.001-88M-34.354 84.646l88.001-88M-34.354 89.646l88.001-88M-34.354 94.646l88.001-88M-34.354 99.646l88.001-88M-34.354 104.646l88.001-88M-34.354 109.646l88.001-88M-34.354 114.646l88.001-88M-34.354 119.646l88.001-88M-34.354 124.646l88.001-88M-34.354 129.646l88.001-88M-34.354 134.646l88.001-88M-34.354 139.646l88.001-88M-34.354 144.646l88.001-88M-34.354 149.646l88.001-88M-34.354 154.646l88.001-88M-34.354 159.646l88.001-88M-34.354 164.646l88.001-88M-34.354 169.646l88.001-88M-34.354 174.646l88.001-88"/></g><defs><clipPath id="a"><path fill="#fff" d="M0 0h100v100H0z"/></clipPath></defs></svg>