<svg width="100" height="100" viewBox="0 0 100 100" fill="none" xmlns="http://www.w3.org/2000/svg">
<g clip-path="url(#clip0_73_23)">
<rect width="100" height="100" fill="#4B4B4B"/>
<line x1="-34.3536" y1="39.6464" x2="53.6465" y2="-48.3536" stroke="#4E724F"/>
<line x1="-34.3536" y1="44.6464" x2="53.6465" y2="-43.3536" stroke="#4E724F"/>
<line x1="-34.3536" y1="49.6464" x2="53.6465" y2="-38.3536" stroke="#4E724F"/>
<line x1="-34.3536" y1="54.6464" x2="53.6465" y2="-33.3536" stroke="#4E724F"/>
<line x1="-34.3536" y1="59.6464" x2="53.6465" y2="-28.3536" stroke="#4E724F"/>
<line x1="-34.3536" y1="64.6464" x2="53.6465" y2="-23.3536" stroke="#4E724F"/>
<line x1="-34.3536" y1="69.6464" x2="53.6465" y2="-18.3536" stroke="#4E724F"/>
<line x1="-34.3536" y1="74.6464" x2="53.6465" y2="-13.3536" stroke="#4E724F"/>
<line x1="-34.3536" y1="79.6464" x2="53.6465" y2="-8.35355" stroke="#4E724F"/>
<line x1="-34.3536" y1="84.6464" x2="53.6465" y2="-3.35356" stroke="#4E724F"/>
<line x1="-34.3536" y1="89.6464" x2="53.6465" y2="1.64644" stroke="#4E724F"/>
<line x1="-34.3536" y1="94.6464" x2="53.6465" y2="6.64644" stroke="#4E724F"/>
<line x1="-34.3536" y1="99.6464" x2="53.6465" y2="11.6464" stroke="#4E724F"/>
<line x1="-34.3536" y1="104.646" x2="53.6465" y2="16.6464" stroke="#4E724F"/>
<line x1="-34.3536" y1="109.646" x2="53.6465" y2="21.6464" stroke="#4E724F"/>
<line x1="-34.3536" y1="114.646" x2="53.6465" y2="26.6464" stroke="#4E724F"/>
<line x1="-34.3536" y1="119.646" x2="53.6465" y2="31.6464" stroke="#4E724F"/>
<line x1="-34.3536" y1="124.646" x2="53.6465" y2="36.6464" stroke="#4E724F"/>
<line x1="-34.3536" y1="129.646" x2="53.6465" y2="41.6464" stroke="#4E724F"/>
<line x1="-34.3536" y1="134.646" x2="53.6465" y2="46.6464" stroke="#4E724F"/>
<line x1="-34.3536" y1="139.646" x2="53.6465" y2="51.6464" stroke="#4E724F"/>
<line x1="-34.3536" y1="144.646" x2="53.6465" y2="56.6464" stroke="#4E724F"/>
<line x1="-34.3536" y1="149.646" x2="53.6465" y2="61.6464" stroke="#4E724F"/>
<line x1="-34.3536" y1="154.646" x2="53.6465" y2="66.6464" stroke="#4E724F"/>
<line x1="-34.3536" y1="159.646" x2="53.6465" y2="71.6464" stroke="#4E724F"/>
<line x1="-34.3536" y1="164.646" x2="53.6465" y2="76.6464" stroke="#4E724F"/>
<line x1="-34.3536" y1="169.646" x2="53.6465" y2="81.6464" stroke="#4E724F"/>
<line x1="-34.3536" y1="174.646" x2="53.6465" y2="86.6464" stroke="#4E724F"/>
</g>
<defs>
<clipPath id="clip0_73_23">
<rect width="100" height="100" fill="white"/>
</clipPath>
</defs>
</svg>
